<svg xmlns="http://www.w3.org/2000/svg" width="13243" height="2282" viewBox="0 0 13243 2282">
  <defs>
    <style>
      .cls-1 {
        fill-rule: evenodd;
      }
    </style>
  </defs>
  <path id="Renkli_Dolgu_1" data-name="Renkli Dolgu 1" class="cls-1" d="M413,798h12c7.942-31.033,34.9-61.913,55-82,36.62-36.6,84.909-60.8,140-79,18.568-6.136,38.506-8.3,58-13,34.544-8.335,89.873-3.993,131-4,23.82,0,57.641-3.7,79,1l32,1,69,9c47.21,12.181,90.62,22.278,131,40,101.84,44.7,175.65,125.505,220,228,14.74,34.069,22.04,71.955,32,111,3.45,13.51,1.79,25.93,5,40,9.19,40.26,6,91.47,6,139v525c0.01,47.2,3.21,98.08-6,138-3.24,14.05-1.52,26.5-5,40-10.59,41.06-18.49,80.38-34,116-43.54,99.99-118.44,179.23-218,223-35.71,15.7-74.12,25.59-115,37l-55,9c-14.208,3.27-29.46,1-43,4H889c-16.768,3.65-40.341,1-59,1H100c-38.8,0-71.885,1.2-88-21-18.675-25.73-12-91.03-12-135V166C0,120.428-7.36,47.618,12,21,28.338-1.464,62.757,0,102,0H300c34.932,0,70.985-2.558,91,12,21.428,15.586,22,46.51,22,84V798ZM5153,0h238c38.24,0,82.82-4.127,105,12,21.73,15.8,19,53.257,19,91V311c0,36.888,2.04,73.4-19,89-20.61,15.276-56.61,13-93,13H5203c-41.29,0-76.32,1.182-92-24-12.72-20.428-9-60.231-9-93V116c0-29.412-3.44-66.253,6-87,5.03-11.064,16.51-20.333,28-25Zm805,0h245c42.24,0,83.33-3.339,101,21,18.76,25.846,13,82.128,13,126V2103c0,43.89,6.49,127.59-10,154-8.97,14.38-24.73,20.67-44,25H6020c-34.44,0-73.93,3.48-94-11-27.31-19.71-23-67.89-23-115V95c0-27.264-.44-53.272,10-70,5.56-8.91,16.7-16.878,27-21ZM8783,798h13c1.9-12.833,11.07-24.492,17-34,16.45-26.4,33.44-47.838,58-66,32.02-23.68,68.02-43.841,110-58,19.49-6.574,40.32-9.878,61-15,37.4-9.262,91.37-4.993,136-5,126.66-.021,220.79,10.738,308,49,104.73,45.949,179.45,125.649,225,231,12.33,28.523,19.14,60.266,28,92,3.11,11.15,2.14,21.4,5,33,12.04,48.8,10,109.88,10,169v520c0.01,44.88,2.64,95.9-6,134-2.91,12.82-.9,23.64-4,36-9.43,37.61-15.27,74.83-29,108-43.36,104.8-117.52,191.93-220,237-35.81,15.75-73.94,26.54-115,38-21.78,6.08-45.6,5.92-68,11-11.38,2.58-23.48.67-34,3h-18c-17.37,3.78-41.72,1-61,1H8469c-36.05,0-69.76,1.44-85-19-20.6-27.63-14-89.51-14-137V165c0-50.663-7.36-117.846,15-147,16.02-20.888,54.93-18,92-18h193c36.5,0,72.37-2.309,93,13,19.57,14.526,20,43.407,20,78V798ZM2619,2107h-12c-44.46,99.66-119.54,138.7-234,168-41.39,10.6-95.66,6.99-146,7-97.95.02-182.71-8.55-252-37-21.65-8.89-42.98-14.45-62-26-84.03-51.03-148.86-109.25-190-203-14.45-32.92-23.57-68.62-34-106-6.33-22.69-5.73-47.52-11-71q-0.495-11.505-1-23c-2.79-12.74,1.13-28.61-2-43-3.19-14.66-1-35.5-1-52V1212c-0.01-60.25-2.96-123.7,9-174,3.71-15.59,2.82-29.2,7-44,10.84-38.362,21.17-74.263,36-108,37.27-84.795,119.31-167.756,204-205,33.51-14.737,68.95-26.287,107-37,21.64-6.093,44.78-6.88,67-12l56-5h23c16.77-3.646,40.34-1,59-1h686c40.71,0,75.09-.3,92,23,17.2,23.693,12,74.638,12,115V2135c0,33.41,5.34,87.49-5,112-16.03,37.99-53.83,35-107,35H2745c-31.4,0-72.59,4.22-95-6-14.23-6.49-24.2-21.05-29-37-3.78-12.56-2-30.59-2-46v-86ZM3801,801h13c1.19-7.854,5.87-13.976,9-20,9.12-17.55,17.79-32.854,29-48,3.51-4.741,9.48-8.338,13-13,13.43-17.776,31.79-29.915,51-42,75.63-47.573,159.57-51.982,283-52,91.57-.013,173.99,4.2,243,27,134.65,44.478,212.91,121.883,265,249,40.02,97.663,39,229.93,39,368v869c0,51.52,6.89,111.06-24,132-20.74,14.06-59.16,11-94,11H4437c-43.82,0-77.92,1.17-95-25-12.5-19.15-10-54.79-10-86V1299c0-92.75,7.93-196.25-28-253-16.31-25.76-44.18-41.72-76-52-33.82-10.922-77.06-10-121-10-55.16,0-117.71-4.783-161,9a229.609,229.609,0,0,0-70,36c-8.97,6.67-18.38,14.09-25,23-18.48,24.89-31.54,53.83-41,88-4.86,17.54-3.99,36.49-8,55v18c-3.16,14.68-1,35.49-1,52v897c0,38.14,3.09,78.3-13,100-16.5,22.24-52.92,20-92,20H3514c-27.48,0-64.59,4.44-87-3-43.54-14.46-39-57.13-39-114V753c0-38.133-4.07-82.739,12-105,16.67-23.1,51.79-22,92-22h195c34.97,0,71.79-2.589,92,12,8.12,5.86,15.6,17.592,19,28,4.35,13.329,3,31.841,3,49v86ZM5157,626h244c41.97,0,83.24-2.986,101,21,15.24,20.59,13,56.71,13,93V2133c0,37.5,6.28,105.16-8,129-6.42,10.72-19.21,15.56-33,19-8.38,2.09-19.23,1-29,1H5209c-40.66,0-78.1,2.41-95-21-14.85-20.57-12-58.29-12-94V710c0-22.2-.44-43.2,8-57,5.4-8.821,15.03-17.824,25-22C5141.29,628.366,5151.19,629.639,5157,626ZM7601,2107h-12c-44.57,99.91-119.32,138.59-234,168-41.36,10.61-95.68,6.99-146,7-102.29.02-188.22-10.38-260-40-18.76-7.74-37.39-12.91-54-23-87.69-53.26-150.26-111.79-193-210-16.02-36.81-24.12-77.36-35-120q-4.005-30.495-8-61-0.495-14.505-1-29c-1.77-8.13,1.04-20.63-1-30-3.12-14.36-1-34.81-1-51V1214c0-22.38-3.4-54,1-74,3.37-15.3-1-32.44,2-46,3.05-13.81,1.11-28.49,4-41,3.19-13.82,1.57-25.71,5-39,10.18-39.464,18.09-77.571,33-112,37.9-87.541,95.52-150.9,173-199,11.23-6.969,23.55-15.526,36-21,34.16-15.025,70.12-27.053,109-38,21.65-6.1,44.81-6.888,67-12l56-5h23c17.07-3.711,41.03-1,60-1h687c35.27,0,69.92-.969,86,18,20.26,23.9,16,71.531,16,116V2134c0,33.62,5.42,88.34-5,113-16.08,38.04-53.76,35-107,35H7727c-31.4,0-72.59,4.22-95-6-11.09-5.06-21.22-16.62-26-28-5.85-13.92-5-33.35-5-53v-88ZM11203,626h469c19.1,0,37.1-.925,48,7,15.3,11.139,10,62.955,10,90,0,9.556,1.9,23.22-1,31-7.4,19.959-28.4,19-56,19h-366c-64.5-.007-129-2-178,14-89.2,29.135-146.7,86.25-176,175-19.7,59.59-18,138.08-18,218v622c0,10.62-1,24.06,1,33v19l6,48c7.6,29.81,14.8,57.36,26,83,26.9,61.42,78.1,104.22,141,130,21.2,8.7,45.8,11.33,70,17,10.3,0.67,20.7,1.33,31,2,11.7,2.53,28.6,1,42,1h387c21.5,0,58.1-3.71,74,3,24.1,10.19,17,57.36,17,91,0,15.42,1.2,31.8-5,41-3,4.48-10.4,9.18-16,11-8.1,2.64-21.2,1-31,1h-437c-36.4.01-73,1.08-103-6-10.7-2.54-19.6-1.21-30-4-29-7.78-58-13.79-84-25-93.2-40.27-168.4-108.4-209-201-15-34.22-23.8-70.99-34-111-3.6-14.09-1.7-27.1-5-42-5.5-24.68-4-54.96-4-84V1085c0.3-15.67.7-31.33,1-47,2.3-19.66,4.7-39.335,7-59,9.5-37.212,16.1-72.783,30-105,47.2-109.284,131.3-186.1,249-225,31.2-10.3,65-12.2,100-20C11168.1,626.97,11197.4,629.528,11203,626Zm1279,0h253c63.2-.009,130.1-1.122,180,13,31.7,8.958,61.9,17.646,90,30,105.6,46.412,178,137.312,216,252,21.1,63.849,22,142.84,22,228v587c0,94.66.4,184.5-23,255-46.5,139.93-138,226.29-279,272-72.1,23.38-170.9,18.99-266,19h-157c-40.9.01-80.8,0.29-114-8-7.3-1-14.7-2-22-3-29.1-8.2-58-14.66-84-26-92.8-40.4-165.4-110.54-206-203-14.3-32.58-22.3-68.18-32-106-4.3-16.85-2-33.07-6-51-5-22.61-3-51.54-3-78V1052q3-30.99,6-62c10-40.755,15.9-79.239,31-114,47.9-110.66,130.9-187.488,250-227,31.3-10.38,65-12.105,100-20C12447.2,626.931,12476.3,629.565,12482,626Zm19,147c-7.3,4.252-21.1-.019-30,2-21.7,4.907-44.1,5.4-64,12-71.3,23.574-117.3,61.24-153,120-4.1,6.742-5.7,13.519-9,21-9.9,22.673-17.1,47.868-24,75q-3,23-6,46v17c-1.9,8.65-1,21.68-1,32v641c0,65.25-3.7,134.16,11,186,21.7,76.74,58.1,132.8,119,170,79.5,48.59,199.6,39.99,327,40,73.4,0.01,154.6,5.26,211-13,92.5-29.96,150.7-86.1,181-178,20.4-61.91,17-147.1,17-229V1143c0-74.17-1.4-143.375-23-196-32.7-79.559-85.6-131.126-170-159-46.5-15.351-105.3-15-167-15h-219ZM611,978c-5.006,3.014-13.509.523-20,2-14.1,3.209-28.643,4.613-42,9-42.546,13.97-77.158,39.27-99,74-39.675,63.08-37,145.48-37,248v540c0,19.9-3.362,48.63,5,61,12.7,18.78,76.778,12,109,12H736c45.659,0,92.892,2.35,128-9,29.328-9.48,56.791-23.38,73-46,39.161-54.65,33-152.47,33-247V1304c0-86.26,7.4-186.44-19-247-31.522-72.3-109.045-79-213-79H611Zm8371,0c-4.9,2.943-13.77.565-20,2l-39,8c-44.97,14.75-79.97,39.38-103,76-38.48,61.17-37,147.77-37,248v539c0,22.53-2.6,49.82,7,63,11.76,16.14,80.59,10,110,10h206c47.78,0,95.74,1.75,132-10,34.78-11.27,60.59-29.4,78-58,31.7-52.08,25-146.08,25-229V1303c0-79.48,7.87-180.91-16-238-16.48-39.41-44.74-63.34-87-77-31.88-10.3-71.13-10-113-10H8982Zm-6724,6c-3.96,2.386-11.55-.19-17,1l-40,6c-40.68,11.28-69.44,27.85-89,60-13.83,22.73-16.35,51.55-23,82q-0.495,19.5-1,39c-4.63,21.58-1,59.55-1,84v446c0,10.94-1,24.75,1,34,3.57,16.52-1.45,32.78,2,48,10.01,44.13,18.19,83.12,49,106,49.16,36.52,120.08,34,206,34,40.93,0,85.85,3.18,119-6,70.32-19.48,111.05-55.42,137-119,21.15-51.84,18-126.57,18-199V1075c0-21.99,3.88-63.73-5-77-13.41-20.039-60.09-14-93-14H2258Zm4982,0c-3.96,2.386-11.55-.191-17,1l-40,6c-40.59,11.26-69.48,27.92-89,60-23.46,38.56-24,95.81-24,158v468c0,85.09-.3,149.64,36,198,39.32,52.39,128.91,49,221,49,40.93,0,85.88,3.17,119-6,68.53-18.98,110.72-54.12,136-116,21.66-53.02,19-128.32,19-203V1076c0-22.42,3.97-64.32-5-78-13.2-20.137-60.22-14-93-14H7240Zm2842,768h247c37.8,0,80.9-3.7,97,18,18.1,24.3,13,76.05,13,118v274c0,49.16,3.3,94.33-27,113-19.7,12.12-63.6,7-94,7h-191c-47.1,0-79.2,3.17-97-27-13.6-23.05-8-82.92-8-119V1895c0-33.01-5.2-85.77,5-110,5.5-13.2,17.2-24.02,31-29C10064,1753.84,10077.1,1754.99,10082,1752Z"/>
</svg>
